<mxfile host="app.diagrams.net" modified="2022-03-09T02:12:20.175Z" agent="5.0 (Macintosh; Intel Mac OS X 10_15_7) AppleWebKit/537.36 (KHTML, like Gecko) Chrome/97.0.4692.99 Safari/537.36" etag="-pZq5wKMAqirEC2mU0fU" version="16.6.4" type="github" pages="2">
  <diagram id="87_Q6ZFnAjFzDvUmJnOb" name="Page-2">
    <mxGraphModel dx="1773" dy="1628" grid="1" gridSize="10" guides="1" tooltips="1" connect="1" arrows="1" fold="1" page="1" pageScale="1" pageWidth="827" pageHeight="1169" math="0" shadow="0">
      <root>
        <mxCell id="Rrpha_GVpdCCVJFFokgs-0" />
        <mxCell id="Rrpha_GVpdCCVJFFokgs-1" parent="Rrpha_GVpdCCVJFFokgs-0" />
        <mxCell id="TRPuWoFAxRg32xM1rv0A-3" value="" style="whiteSpace=wrap;html=1;aspect=fixed;" parent="Rrpha_GVpdCCVJFFokgs-1" vertex="1">
          <mxGeometry x="-600" y="75" width="270" height="270" as="geometry" />
        </mxCell>
        <mxCell id="TRPuWoFAxRg32xM1rv0A-4" value="" style="whiteSpace=wrap;html=1;aspect=fixed;" parent="Rrpha_GVpdCCVJFFokgs-1" vertex="1">
          <mxGeometry x="-580" y="55" width="270" height="270" as="geometry" />
        </mxCell>
        <mxCell id="TRPuWoFAxRg32xM1rv0A-0" value="" style="whiteSpace=wrap;html=1;aspect=fixed;" parent="Rrpha_GVpdCCVJFFokgs-1" vertex="1">
          <mxGeometry x="-560" y="35" width="270" height="270" as="geometry" />
        </mxCell>
        <mxCell id="TRPuWoFAxRg32xM1rv0A-1" value="支付模块" style="rounded=1;whiteSpace=wrap;html=1;" parent="Rrpha_GVpdCCVJFFokgs-1" vertex="1">
          <mxGeometry x="-550" y="55" width="120" height="50" as="geometry" />
        </mxCell>
        <mxCell id="TRPuWoFAxRg32xM1rv0A-5" value="用户模块" style="rounded=1;whiteSpace=wrap;html=1;" parent="Rrpha_GVpdCCVJFFokgs-1" vertex="1">
          <mxGeometry x="-420" y="55" width="120" height="50" as="geometry" />
        </mxCell>
        <mxCell id="TRPuWoFAxRg32xM1rv0A-7" value="订单模块" style="rounded=1;whiteSpace=wrap;html=1;" parent="Rrpha_GVpdCCVJFFokgs-1" vertex="1">
          <mxGeometry x="-550" y="125" width="120" height="50" as="geometry" />
        </mxCell>
        <mxCell id="TRPuWoFAxRg32xM1rv0A-8" value="商品模块" style="rounded=1;whiteSpace=wrap;html=1;" parent="Rrpha_GVpdCCVJFFokgs-1" vertex="1">
          <mxGeometry x="-420" y="125" width="120" height="50" as="geometry" />
        </mxCell>
        <mxCell id="TRPuWoFAxRg32xM1rv0A-9" value="库存模块" style="rounded=1;whiteSpace=wrap;html=1;" parent="Rrpha_GVpdCCVJFFokgs-1" vertex="1">
          <mxGeometry x="-550" y="195" width="120" height="50" as="geometry" />
        </mxCell>
        <mxCell id="TRPuWoFAxRg32xM1rv0A-10" value="物流模块" style="rounded=1;whiteSpace=wrap;html=1;" parent="Rrpha_GVpdCCVJFFokgs-1" vertex="1">
          <mxGeometry x="-420" y="195" width="120" height="50" as="geometry" />
        </mxCell>
        <mxCell id="TRPuWoFAxRg32xM1rv0A-11" value="" style="rounded=1;whiteSpace=wrap;html=1;" parent="Rrpha_GVpdCCVJFFokgs-1" vertex="1">
          <mxGeometry x="-530" y="255" width="50" height="20" as="geometry" />
        </mxCell>
        <mxCell id="TRPuWoFAxRg32xM1rv0A-12" value="" style="rounded=1;whiteSpace=wrap;html=1;" parent="Rrpha_GVpdCCVJFFokgs-1" vertex="1">
          <mxGeometry x="-470" y="255" width="50" height="20" as="geometry" />
        </mxCell>
        <mxCell id="TRPuWoFAxRg32xM1rv0A-13" value="" style="rounded=1;whiteSpace=wrap;html=1;fontStyle=1" parent="Rrpha_GVpdCCVJFFokgs-1" vertex="1">
          <mxGeometry x="-400" y="255" width="50" height="20" as="geometry" />
        </mxCell>
        <mxCell id="TRPuWoFAxRg32xM1rv0A-15" value="" style="rounded=1;whiteSpace=wrap;html=1;" parent="Rrpha_GVpdCCVJFFokgs-1" vertex="1">
          <mxGeometry x="-110" y="40" width="120" height="60" as="geometry" />
        </mxCell>
        <mxCell id="TRPuWoFAxRg32xM1rv0A-17" value="" style="rounded=1;whiteSpace=wrap;html=1;" parent="Rrpha_GVpdCCVJFFokgs-1" vertex="1">
          <mxGeometry x="-130" y="50" width="120" height="60" as="geometry" />
        </mxCell>
        <mxCell id="TRPuWoFAxRg32xM1rv0A-14" value="支付模块" style="rounded=1;whiteSpace=wrap;html=1;" parent="Rrpha_GVpdCCVJFFokgs-1" vertex="1">
          <mxGeometry x="-150" y="60" width="120" height="60" as="geometry" />
        </mxCell>
        <mxCell id="TRPuWoFAxRg32xM1rv0A-18" value="" style="rounded=1;whiteSpace=wrap;html=1;" parent="Rrpha_GVpdCCVJFFokgs-1" vertex="1">
          <mxGeometry x="109" y="30" width="120" height="60" as="geometry" />
        </mxCell>
        <mxCell id="TRPuWoFAxRg32xM1rv0A-19" value="" style="rounded=1;whiteSpace=wrap;html=1;" parent="Rrpha_GVpdCCVJFFokgs-1" vertex="1">
          <mxGeometry x="89" y="40" width="120" height="60" as="geometry" />
        </mxCell>
        <mxCell id="TRPuWoFAxRg32xM1rv0A-20" value="用户模块" style="rounded=1;whiteSpace=wrap;html=1;" parent="Rrpha_GVpdCCVJFFokgs-1" vertex="1">
          <mxGeometry x="69" y="50" width="120" height="60" as="geometry" />
        </mxCell>
        <mxCell id="TRPuWoFAxRg32xM1rv0A-21" value="" style="rounded=1;whiteSpace=wrap;html=1;" parent="Rrpha_GVpdCCVJFFokgs-1" vertex="1">
          <mxGeometry x="-130" y="150" width="120" height="60" as="geometry" />
        </mxCell>
        <mxCell id="TRPuWoFAxRg32xM1rv0A-22" value="" style="rounded=1;whiteSpace=wrap;html=1;" parent="Rrpha_GVpdCCVJFFokgs-1" vertex="1">
          <mxGeometry x="-150" y="160" width="120" height="60" as="geometry" />
        </mxCell>
        <mxCell id="TRPuWoFAxRg32xM1rv0A-23" value="订单模块" style="rounded=1;whiteSpace=wrap;html=1;" parent="Rrpha_GVpdCCVJFFokgs-1" vertex="1">
          <mxGeometry x="-170" y="170" width="120" height="60" as="geometry" />
        </mxCell>
        <mxCell id="TRPuWoFAxRg32xM1rv0A-24" value="" style="rounded=1;whiteSpace=wrap;html=1;" parent="Rrpha_GVpdCCVJFFokgs-1" vertex="1">
          <mxGeometry x="109" y="130" width="120" height="60" as="geometry" />
        </mxCell>
        <mxCell id="TRPuWoFAxRg32xM1rv0A-25" value="" style="rounded=1;whiteSpace=wrap;html=1;" parent="Rrpha_GVpdCCVJFFokgs-1" vertex="1">
          <mxGeometry x="89" y="140" width="120" height="60" as="geometry" />
        </mxCell>
        <mxCell id="TRPuWoFAxRg32xM1rv0A-26" value="商品模块" style="rounded=1;whiteSpace=wrap;html=1;" parent="Rrpha_GVpdCCVJFFokgs-1" vertex="1">
          <mxGeometry x="69" y="150" width="120" height="60" as="geometry" />
        </mxCell>
        <mxCell id="TRPuWoFAxRg32xM1rv0A-27" value="" style="rounded=1;whiteSpace=wrap;html=1;" parent="Rrpha_GVpdCCVJFFokgs-1" vertex="1">
          <mxGeometry x="-130" y="250" width="120" height="60" as="geometry" />
        </mxCell>
        <mxCell id="TRPuWoFAxRg32xM1rv0A-28" value="" style="rounded=1;whiteSpace=wrap;html=1;" parent="Rrpha_GVpdCCVJFFokgs-1" vertex="1">
          <mxGeometry x="-150" y="260" width="120" height="60" as="geometry" />
        </mxCell>
        <mxCell id="TRPuWoFAxRg32xM1rv0A-29" value="库存模块" style="rounded=1;whiteSpace=wrap;html=1;" parent="Rrpha_GVpdCCVJFFokgs-1" vertex="1">
          <mxGeometry x="-170" y="270" width="120" height="60" as="geometry" />
        </mxCell>
        <mxCell id="TRPuWoFAxRg32xM1rv0A-30" value="" style="rounded=1;whiteSpace=wrap;html=1;" parent="Rrpha_GVpdCCVJFFokgs-1" vertex="1">
          <mxGeometry x="109" y="240" width="120" height="60" as="geometry" />
        </mxCell>
        <mxCell id="TRPuWoFAxRg32xM1rv0A-31" value="" style="rounded=1;whiteSpace=wrap;html=1;" parent="Rrpha_GVpdCCVJFFokgs-1" vertex="1">
          <mxGeometry x="89" y="250" width="120" height="60" as="geometry" />
        </mxCell>
        <mxCell id="TRPuWoFAxRg32xM1rv0A-32" value="物流模块" style="rounded=1;whiteSpace=wrap;html=1;" parent="Rrpha_GVpdCCVJFFokgs-1" vertex="1">
          <mxGeometry x="69" y="260" width="120" height="60" as="geometry" />
        </mxCell>
        <mxCell id="ZVplLZ-tNldme0sA96Sk-5" value="" style="endArrow=none;html=1;rounded=0;strokeWidth=8;" edge="1" parent="Rrpha_GVpdCCVJFFokgs-1">
          <mxGeometry width="50" height="50" relative="1" as="geometry">
            <mxPoint x="-220" y="380" as="sourcePoint" />
            <mxPoint x="-220" as="targetPoint" />
          </mxGeometry>
        </mxCell>
        <mxCell id="ZVplLZ-tNldme0sA96Sk-7" value="单体架构" style="text;html=1;strokeColor=none;fillColor=none;align=center;verticalAlign=middle;whiteSpace=wrap;rounded=0;" vertex="1" parent="Rrpha_GVpdCCVJFFokgs-1">
          <mxGeometry x="-473" y="360" width="60" height="30" as="geometry" />
        </mxCell>
        <mxCell id="ZVplLZ-tNldme0sA96Sk-8" value="微服务架构" style="text;html=1;strokeColor=none;fillColor=none;align=center;verticalAlign=middle;whiteSpace=wrap;rounded=0;" vertex="1" parent="Rrpha_GVpdCCVJFFokgs-1">
          <mxGeometry y="360" width="80" height="30" as="geometry" />
        </mxCell>
      </root>
    </mxGraphModel>
  </diagram>
  <diagram id="Tp3frFxcCk2kaSJJFbRk" name="Page-3">
    <mxGraphModel dx="1773" dy="459" grid="1" gridSize="10" guides="1" tooltips="1" connect="1" arrows="1" fold="1" page="1" pageScale="1" pageWidth="827" pageHeight="1169" math="0" shadow="0">
      <root>
        <mxCell id="FnapRPRA2rB0TodCsvH3-0" />
        <mxCell id="FnapRPRA2rB0TodCsvH3-1" parent="FnapRPRA2rB0TodCsvH3-0" />
        <mxCell id="M9XMl_ZK3v2Df0_AZ0CA-0" value="" style="rounded=0;whiteSpace=wrap;html=1;sketch=0;dashed=1;" parent="FnapRPRA2rB0TodCsvH3-1" vertex="1">
          <mxGeometry x="20" y="585" width="530" height="105" as="geometry" />
        </mxCell>
        <mxCell id="M9XMl_ZK3v2Df0_AZ0CA-1" value="注册中心" style="ellipse;shape=cloud;whiteSpace=wrap;html=1;rounded=0;sketch=0;" parent="FnapRPRA2rB0TodCsvH3-1" vertex="1">
          <mxGeometry x="270" y="442" width="120" height="80" as="geometry" />
        </mxCell>
        <mxCell id="M9XMl_ZK3v2Df0_AZ0CA-2" value="配置中心" style="sketch=0;outlineConnect=0;fontColor=#232F3E;gradientColor=none;fillColor=#232F3D;strokeColor=none;dashed=0;verticalLabelPosition=bottom;verticalAlign=top;align=center;html=1;fontSize=12;fontStyle=0;aspect=fixed;pointerEvents=1;shape=mxgraph.aws4.documents2;rounded=0;" parent="FnapRPRA2rB0TodCsvH3-1" vertex="1">
          <mxGeometry x="414.00000000000006" y="439.99" width="58.42" height="68.01" as="geometry" />
        </mxCell>
        <mxCell id="M9XMl_ZK3v2Df0_AZ0CA-3" value="运营服务项目成员" style="shape=umlActor;verticalLabelPosition=bottom;verticalAlign=top;html=1;outlineConnect=0;rounded=0;sketch=0;" parent="FnapRPRA2rB0TodCsvH3-1" vertex="1">
          <mxGeometry x="550" y="468" width="20" height="40" as="geometry" />
        </mxCell>
        <mxCell id="M9XMl_ZK3v2Df0_AZ0CA-4" value="" style="shape=flexArrow;endArrow=classic;html=1;rounded=1;sketch=0;curved=0;endWidth=13;endSize=5.33;" parent="FnapRPRA2rB0TodCsvH3-1" edge="1">
          <mxGeometry width="50" height="50" relative="1" as="geometry">
            <mxPoint x="540" y="493.5" as="sourcePoint" />
            <mxPoint x="490" y="493.5" as="targetPoint" />
          </mxGeometry>
        </mxCell>
        <mxCell id="M9XMl_ZK3v2Df0_AZ0CA-5" value="创建资源" style="text;html=1;strokeColor=none;fillColor=none;align=center;verticalAlign=middle;whiteSpace=wrap;rounded=0;sketch=0;" parent="FnapRPRA2rB0TodCsvH3-1" vertex="1">
          <mxGeometry x="484" y="450" width="60" height="30" as="geometry" />
        </mxCell>
        <mxCell id="M9XMl_ZK3v2Df0_AZ0CA-6" value="业务项目成员" style="shape=umlActor;verticalLabelPosition=bottom;verticalAlign=top;html=1;outlineConnect=0;rounded=0;sketch=0;" parent="FnapRPRA2rB0TodCsvH3-1" vertex="1">
          <mxGeometry x="650" y="466" width="20" height="42" as="geometry" />
        </mxCell>
        <mxCell id="M9XMl_ZK3v2Df0_AZ0CA-7" value="" style="shape=flexArrow;endArrow=classic;html=1;rounded=1;sketch=0;curved=0;endWidth=14;endSize=5;" parent="FnapRPRA2rB0TodCsvH3-1" edge="1">
          <mxGeometry width="50" height="50" relative="1" as="geometry">
            <mxPoint x="637" y="493" as="sourcePoint" />
            <mxPoint x="587" y="493" as="targetPoint" />
          </mxGeometry>
        </mxCell>
        <mxCell id="M9XMl_ZK3v2Df0_AZ0CA-8" value="提交申请" style="text;html=1;strokeColor=none;fillColor=none;align=center;verticalAlign=middle;whiteSpace=wrap;rounded=0;sketch=0;" parent="FnapRPRA2rB0TodCsvH3-1" vertex="1">
          <mxGeometry x="585" y="450" width="60" height="30" as="geometry" />
        </mxCell>
        <mxCell id="M9XMl_ZK3v2Df0_AZ0CA-9" value="应用实例" style="rounded=1;whiteSpace=wrap;html=1;sketch=0;" parent="FnapRPRA2rB0TodCsvH3-1" vertex="1">
          <mxGeometry x="250" y="600" width="120" height="60" as="geometry" />
        </mxCell>
        <mxCell id="M9XMl_ZK3v2Df0_AZ0CA-10" value="应用实例" style="rounded=1;whiteSpace=wrap;html=1;sketch=0;" parent="FnapRPRA2rB0TodCsvH3-1" vertex="1">
          <mxGeometry x="411" y="600" width="120" height="60" as="geometry" />
        </mxCell>
        <mxCell id="M9XMl_ZK3v2Df0_AZ0CA-11" value="" style="shape=flexArrow;endArrow=classic;startArrow=classic;html=1;rounded=1;sketch=0;curved=0;startWidth=12;startSize=3.33;endWidth=12;endSize=3.33;" parent="FnapRPRA2rB0TodCsvH3-1" edge="1">
          <mxGeometry width="100" height="100" relative="1" as="geometry">
            <mxPoint x="327" y="582" as="sourcePoint" />
            <mxPoint x="327" y="524" as="targetPoint" />
          </mxGeometry>
        </mxCell>
        <mxCell id="M9XMl_ZK3v2Df0_AZ0CA-12" value="" style="shape=flexArrow;endArrow=classic;startArrow=classic;html=1;rounded=1;sketch=0;curved=0;startWidth=12;startSize=3.33;endWidth=12;endSize=3.33;" parent="FnapRPRA2rB0TodCsvH3-1" edge="1">
          <mxGeometry width="100" height="100" relative="1" as="geometry">
            <mxPoint x="446.71000000000004" y="580" as="sourcePoint" />
            <mxPoint x="446.71000000000004" y="533.99" as="targetPoint" />
          </mxGeometry>
        </mxCell>
        <mxCell id="M9XMl_ZK3v2Df0_AZ0CA-13" style="edgeStyle=orthogonalEdgeStyle;curved=0;rounded=1;sketch=0;orthogonalLoop=1;jettySize=auto;html=1;exitX=0;exitY=0;exitDx=120;exitDy=50;exitPerimeter=0;entryX=0.07;entryY=0.4;entryDx=0;entryDy=0;entryPerimeter=0;" parent="FnapRPRA2rB0TodCsvH3-1" source="M9XMl_ZK3v2Df0_AZ0CA-16" target="M9XMl_ZK3v2Df0_AZ0CA-1" edge="1">
          <mxGeometry relative="1" as="geometry" />
        </mxCell>
        <mxCell id="M9XMl_ZK3v2Df0_AZ0CA-14" style="edgeStyle=orthogonalEdgeStyle;curved=0;rounded=1;sketch=0;orthogonalLoop=1;jettySize=auto;html=1;exitX=0;exitY=0;exitDx=120;exitDy=50;exitPerimeter=0;" parent="FnapRPRA2rB0TodCsvH3-1" source="M9XMl_ZK3v2Df0_AZ0CA-16" target="M9XMl_ZK3v2Df0_AZ0CA-2" edge="1">
          <mxGeometry relative="1" as="geometry">
            <Array as="points">
              <mxPoint x="220" y="420" />
              <mxPoint x="443" y="420" />
            </Array>
          </mxGeometry>
        </mxCell>
        <mxCell id="M9XMl_ZK3v2Df0_AZ0CA-15" style="edgeStyle=orthogonalEdgeStyle;curved=0;rounded=1;sketch=0;orthogonalLoop=1;jettySize=auto;html=1;exitX=0;exitY=0;exitDx=70;exitDy=80;exitPerimeter=0;" parent="FnapRPRA2rB0TodCsvH3-1" source="M9XMl_ZK3v2Df0_AZ0CA-16" target="M9XMl_ZK3v2Df0_AZ0CA-17" edge="1">
          <mxGeometry relative="1" as="geometry" />
        </mxCell>
        <mxCell id="M9XMl_ZK3v2Df0_AZ0CA-16" value="服务治理" style="shape=cube;whiteSpace=wrap;html=1;boundedLbl=1;backgroundOutline=1;darkOpacity=0.05;darkOpacity2=0.1;rounded=0;sketch=0;" parent="FnapRPRA2rB0TodCsvH3-1" vertex="1">
          <mxGeometry x="100" y="450" width="120" height="80" as="geometry" />
        </mxCell>
        <mxCell id="M9XMl_ZK3v2Df0_AZ0CA-17" value="服务网关" style="sketch=0;points=[[0,0,0],[0.25,0,0],[0.5,0,0],[0.75,0,0],[1,0,0],[0,1,0],[0.25,1,0],[0.5,1,0],[0.75,1,0],[1,1,0],[0,0.25,0],[0,0.5,0],[0,0.75,0],[1,0.25,0],[1,0.5,0],[1,0.75,0]];outlineConnect=0;fontColor=#232F3E;gradientColor=#FFFFFF;gradientDirection=north;fillColor=#FFFFFF;strokeColor=#000000;dashed=0;verticalLabelPosition=bottom;verticalAlign=top;align=center;html=1;fontSize=12;fontStyle=0;aspect=fixed;shape=mxgraph.aws4.resourceIcon;resIcon=mxgraph.aws4.api_gateway;rounded=0;" parent="FnapRPRA2rB0TodCsvH3-1" vertex="1">
          <mxGeometry x="110" y="585" width="78" height="78" as="geometry" />
        </mxCell>
        <mxCell id="M9XMl_ZK3v2Df0_AZ0CA-18" value="业务项目成员" style="shape=umlActor;verticalLabelPosition=bottom;verticalAlign=top;html=1;outlineConnect=0;rounded=0;sketch=0;" parent="FnapRPRA2rB0TodCsvH3-1" vertex="1">
          <mxGeometry x="10" y="450" width="20" height="42" as="geometry" />
        </mxCell>
        <mxCell id="M9XMl_ZK3v2Df0_AZ0CA-19" value="" style="shape=flexArrow;endArrow=classic;html=1;rounded=1;sketch=0;curved=0;endWidth=10;endSize=5.35;entryX=-0.033;entryY=0.3;entryDx=0;entryDy=0;entryPerimeter=0;" parent="FnapRPRA2rB0TodCsvH3-1" target="M9XMl_ZK3v2Df0_AZ0CA-16" edge="1">
          <mxGeometry width="50" height="50" relative="1" as="geometry">
            <mxPoint x="40" y="474" as="sourcePoint" />
            <mxPoint x="100" y="450" as="targetPoint" />
          </mxGeometry>
        </mxCell>
        <mxCell id="M9XMl_ZK3v2Df0_AZ0CA-20" style="edgeStyle=orthogonalEdgeStyle;curved=0;rounded=1;sketch=0;orthogonalLoop=1;jettySize=auto;html=1;exitX=0.5;exitY=1;exitDx=0;exitDy=0;" parent="FnapRPRA2rB0TodCsvH3-1" source="M9XMl_ZK3v2Df0_AZ0CA-0" target="M9XMl_ZK3v2Df0_AZ0CA-0" edge="1">
          <mxGeometry relative="1" as="geometry" />
        </mxCell>
        <mxCell id="M9XMl_ZK3v2Df0_AZ0CA-21" value="设置" style="text;html=1;strokeColor=none;fillColor=none;align=center;verticalAlign=middle;whiteSpace=wrap;rounded=0;sketch=0;" parent="FnapRPRA2rB0TodCsvH3-1" vertex="1">
          <mxGeometry x="30" y="436" width="60" height="30" as="geometry" />
        </mxCell>
        <mxCell id="M9XMl_ZK3v2Df0_AZ0CA-22" value="项目组部署" style="text;html=1;strokeColor=none;fillColor=none;align=center;verticalAlign=middle;whiteSpace=wrap;rounded=0;" parent="FnapRPRA2rB0TodCsvH3-1" vertex="1">
          <mxGeometry x="30" y="602.5" width="20" height="70" as="geometry" />
        </mxCell>
      </root>
    </mxGraphModel>
  </diagram>
</mxfile>
